<svg id="Layer_1" data-name="Layer 1" xmlns="http://www.w3.org/2000/svg" viewBox="0 0 1024 1024"><defs><style>.cls-1{fill:#ebebeb;}.cls-2{fill:#e6e6e6;}.cls-14,.cls-15,.cls-3{fill:#fff;}.cls-4{fill:#f0f0f0;}.cls-5{fill:#fafafa;}.cls-6{fill:#e0e0e0;}.cls-7{fill:#f5f5f5;}.cls-12,.cls-13,.cls-8{fill:#6f5fff;}.cls-9{opacity:0.1;}.cls-10,.cls-11,.cls-12,.cls-13,.cls-14,.cls-15,.cls-19,.cls-9{isolation:isolate;}.cls-10,.cls-13{opacity:0.2;}.cls-11{opacity:0.3;}.cls-12{opacity:0.8;}.cls-14{opacity:0.7;}.cls-15,.cls-19{opacity:0.5;}.cls-16{fill:#ffc3bd;}.cls-17{fill:#263238;}.cls-18{fill:#ed847e;}</style></defs><title>DR Splash Screens </title><g id="freepik--background-complete--inject-17"><rect class="cls-1" x="46.69" y="809.54" width="959.79" height="0.48"/><rect class="cls-1" x="600.3" y="836.3" width="63.58" height="0.48"/><rect class="cls-1" x="828.12" y="831.1" width="16.68" height="0.48"/><rect class="cls-1" x="675.68" y="822.62" width="132.3" height="0.48"/><rect class="cls-1" x="420.71" y="833.94" width="58.16" height="0.48"/><rect class="cls-1" x="366.73" y="833.94" width="36.89" height="0.48"/><rect class="cls-1" x="147.4" y="825.84" width="89.91" height="0.48"/><path class="cls-1" d="M501.64,723.93H131A11,11,0,0,1,120,713v-521A11,11,0,0,1,131,181.07H501.64a11,11,0,0,1,11,11h0V713A11,11,0,0,1,501.64,723.93ZM131,181.46a10.48,10.48,0,0,0-10.46,10.48V713A10.48,10.48,0,0,0,131,723.45H501.64A10.5,10.5,0,0,0,512.12,713v-521a10.5,10.5,0,0,0-10.48-10.48Z"/><path class="cls-1" d="M916.86,723.93H546.19a11,11,0,0,1-11-11v-521a11,11,0,0,1,11-10.87H916.86a11,11,0,0,1,10.92,10.87V713A11,11,0,0,1,916.86,723.93ZM546.19,181.46a10.49,10.49,0,0,0-10.48,10.48V713a10.5,10.5,0,0,0,10.48,10.48H916.86A10.5,10.5,0,0,0,927.34,713v-521a10.5,10.5,0,0,0-10.48-10.48Z"/><path class="cls-2" d="M888.78,400.12a7.93,7.93,0,0,0-7.91-7.91H634.51a7.93,7.93,0,0,0-7.91,7.91v25.45H888.78Z"/><path class="cls-3" d="M830.81,408.89a6,6,0,1,1-6-6h0A6,6,0,0,1,830.81,408.89Z"/><path class="cls-3" d="M852,408.89a6,6,0,1,1-6-6h0A6,6,0,0,1,852,408.89Z"/><circle class="cls-3" cx="867.2" cy="408.89" r="5.99"/><path class="cls-4" d="M634.51,597H880.87a7.93,7.93,0,0,0,7.91-7.91V425.57H626.6V589.12A7.93,7.93,0,0,0,634.51,597Z"/><path class="cls-4" d="M908.78,460a7.93,7.93,0,0,0-7.91-7.91H654.51A7.93,7.93,0,0,0,646.6,460v25.45H908.78Z"/><path class="cls-2" d="M850.83,468.76a6,6,0,1,1-6-6h0A6,6,0,0,1,850.83,468.76Z"/><path class="cls-2" d="M872,468.76a6,6,0,1,1-6-6h0A6,6,0,0,1,872,468.76Z"/><path class="cls-2" d="M893.23,468.76a6,6,0,1,1-6-6h0A6,6,0,0,1,893.23,468.76Z"/><path class="cls-5" d="M654.51,656.9h246.4a7.93,7.93,0,0,0,7.91-7.91V485.44H646.6V649A7.93,7.93,0,0,0,654.51,656.9Z"/><path class="cls-6" d="M142,216.41a7.54,7.54,0,0,1,7.51-7.49H472.84a7.54,7.54,0,0,1,7.51,7.49v24.17H142Z"/><path class="cls-3" d="M202.68,231a6.16,6.16,0,1,1,6.16-6.16h0A6.16,6.16,0,0,1,202.68,231Zm0-11.34a5.18,5.18,0,1,0,5.18,5.18h0a5.18,5.18,0,0,0-5.1-5.26h-.08Z"/><path class="cls-3" d="M182.58,231a6.12,6.12,0,1,1,.08,0Zm0-11.34a5.18,5.18,0,1,0,5.18,5.18h0a5.18,5.18,0,0,0-5.1-5.26h-.08Z"/><path class="cls-3" d="M162.48,231a6.16,6.16,0,1,1,6.17-6.16h0A6.16,6.16,0,0,1,162.48,231Zm0-11.34a5.18,5.18,0,1,0,5.19,5.18h0a5.19,5.19,0,0,0-5.11-5.26h-.08Z"/><path class="cls-1" d="M149.53,441.29H472.84a7.53,7.53,0,0,0,7.51-7.51V240.58H142v193.2A7.53,7.53,0,0,0,149.53,441.29Z"/><path class="cls-5" d="M223.12,267.09a7.53,7.53,0,0,1,7.51-7.49H553.89a7.52,7.52,0,0,1,7.5,7.49v24.15H223.12Z"/><path class="cls-2" d="M283.78,281.58a6.16,6.16,0,1,1,6.16-6.16h0A6.16,6.16,0,0,1,283.78,281.58Zm0-11.34a5.18,5.18,0,1,0,5.18,5.18h0A5.18,5.18,0,0,0,283.78,270.24Z"/><path class="cls-2" d="M263.61,281.58a6.16,6.16,0,1,1,6.16-6.16h0A6.16,6.16,0,0,1,263.61,281.58Zm0-11.34a5.18,5.18,0,1,0,5.18,5.18h0A5.18,5.18,0,0,0,263.61,270.24Z"/><path class="cls-2" d="M243.59,281.58a6.16,6.16,0,1,1,6.16-6.16h0A6.16,6.16,0,0,1,243.59,281.58Zm0-11.34a5.18,5.18,0,1,0,5.18,5.18h0A5.18,5.18,0,0,0,243.59,270.24Z"/><path class="cls-7" d="M230.63,530.07H553.89a7.52,7.52,0,0,0,7.5-7.5V291.24H223.12V522.57A7.52,7.52,0,0,0,230.63,530.07Z"/><rect class="cls-2" x="600.3" y="308.32" width="119.01" height="23.71" rx="2.5"/><path class="cls-4" d="M801.55,268.12,602.8,269.37a2.5,2.5,0,0,0-2.5,2.5V290.6a2.51,2.51,0,0,0,2.52,2.48l198.75-1.25a2.49,2.49,0,0,0,2.48-2.49V270.6a2.48,2.48,0,0,0-2.48-2.48Z"/><rect class="cls-4" x="600.3" y="229.16" width="160.17" height="23.71" rx="2.5"/><rect class="cls-2" x="163.4" y="613.19" width="41.94" height="15.74" rx="1.21"/><path class="cls-4" d="M234.33,587.2l-70,.82c-.5,0-.89.75-.89,1.65v12.44c0,.91.41,1.65.89,1.65l70.06-.84c.48,0,.89-.75.89-1.65V588.83C235.22,588,234.81,587.2,234.33,587.2Z"/><rect class="cls-4" x="163.4" y="562.05" width="56.45" height="15.74" rx="1.21"/><path class="cls-4" d="M234.33,663.92l-70,.89c-.5,0-.89.75-.89,1.65V678.9c0,.9.41,1.65.89,1.65l70.06-.85c.48,0,.89-.75.89-1.65V665.61C235.22,664.67,234.81,663.92,234.33,663.92Z"/><rect class="cls-4" x="163.4" y="638.78" width="56.45" height="15.74" rx="1.21"/></g><g id="freepik--Shadow--inject-17"><ellipse id="freepik--path--inject-17" class="cls-7" cx="526.59" cy="874.5" rx="372.19" ry="21.73"/></g><g id="freepik--Windows--inject-17"><rect class="cls-8" x="527.63" y="235.03" width="362.53" height="360.73"/><rect class="cls-9" x="527.63" y="252.98" width="118.34" height="67.9"/><rect class="cls-10" x="527.63" y="388.77" width="118.34" height="67.9"/><rect class="cls-9" x="527.63" y="456.67" width="118.34" height="67.9"/><path class="cls-3" d="M646,253H884.15V582.26a8.8,8.8,0,0,1-8.79,8.8H654.76a8.8,8.8,0,0,1-8.79-8.8V253Z"/><rect class="cls-11" x="527.63" y="235.03" width="362.53" height="17.95"/><circle class="cls-12" cx="541.75" cy="244.01" r="3.65"/><circle class="cls-12" cx="558.4" cy="244.01" r="3.65"/><circle class="cls-12" cx="575.02" cy="244.01" r="3.65"/><rect class="cls-13" x="664.36" y="286.82" width="149.75" height="120.05" rx="5.47"/><rect class="cls-13" x="754.83" y="277.28" width="115.02" height="92.22" rx="4.2"/><rect class="cls-13" x="695.19" y="445.61" width="115.02" height="92.22" rx="4.2"/><rect class="cls-14" x="527.63" y="235.03" width="362.53" height="360.73"/><rect class="cls-8" x="494.34" y="268.32" width="362.53" height="360.73"/><rect class="cls-9" x="494.34" y="286.26" width="118.34" height="67.9"/><rect class="cls-10" x="494.34" y="422.04" width="118.34" height="67.9"/><rect class="cls-9" x="494.34" y="489.93" width="118.34" height="67.9"/><path class="cls-3" d="M612.68,286.26H850.87V615.53a8.79,8.79,0,0,1-8.8,8.79H621.49a8.79,8.79,0,0,1-8.79-8.79V286.26Z"/><rect class="cls-11" x="494.34" y="268.32" width="362.53" height="17.95"/><circle class="cls-12" cx="508.47" cy="277.28" r="3.65"/><circle class="cls-12" cx="525.11" cy="277.28" r="3.65"/><circle class="cls-12" cx="541.75" cy="277.28" r="3.65"/><rect class="cls-13" x="631.09" y="320.11" width="149.75" height="120.05" rx="5.47"/><rect class="cls-13" x="723.31" y="414.95" width="115.02" height="92.22" rx="4.2"/><rect class="cls-13" x="661.92" y="478.9" width="115.02" height="92.22" rx="4.2"/><rect class="cls-15" x="494.34" y="268.32" width="362.53" height="360.73"/><rect class="cls-8" x="461.07" y="301.58" width="362.53" height="360.73"/><rect class="cls-9" x="461.07" y="319.53" width="118.34" height="67.9"/><rect class="cls-10" x="461.07" y="455.32" width="118.34" height="67.9"/><rect class="cls-9" x="461.07" y="523.22" width="118.34" height="67.9"/><path class="cls-3" d="M579.42,319.53H817.6V648.82a8.8,8.8,0,0,1-8.79,8.79H588.21a8.79,8.79,0,0,1-8.79-8.79V319.53Z"/><rect class="cls-11" x="461.07" y="301.58" width="362.53" height="17.95"/><circle class="cls-12" cx="475.2" cy="310.57" r="3.65"/><path class="cls-12" d="M495.49,310.57a3.67,3.67,0,1,1-3.68-3.65h0a3.64,3.64,0,0,1,3.66,3.63Z"/><circle class="cls-12" cx="508.47" cy="310.57" r="3.65"/><rect class="cls-13" x="441.02" y="292.73" width="224.99" height="180.38" rx="8.22"/><rect class="cls-13" x="604.1" y="380.86" width="172.82" height="138.56" rx="6.32"/><rect class="cls-13" x="661.92" y="551.99" width="172.82" height="138.56" rx="6.32"/></g><g id="freepik--Character--inject-17"><path class="cls-16" d="M354.5,398.29l-13.94,29.24c-4.6,9.75-9.11,19.56-13.13,29.27L326,460.43c-.21.56-.27.67-.42,1.15a12.92,12.92,0,0,0-.38,1.4,63.29,63.29,0,0,0-1.14,6.95c-.53,5-.84,10.31-1,15.63-.39,10.65-.48,21.57-.62,32.38l-10.52,1.17A279.78,279.78,0,0,1,306.66,486a163.44,163.44,0,0,1-.8-17.28,71,71,0,0,1,.65-9.33c.1-.81.29-1.73.48-2.61s.52-2.05.73-2.78L309,450c3.59-10.81,7.78-21.12,12.17-31.27s9.1-20.12,14.17-30Z"/><path class="cls-16" d="M322.25,514.64l4.91,9.19-15.68,4.38s-3-7.39.56-13.21Z"/><polygon class="cls-16" points="333.19 537.1 318.76 538.23 311.48 528.21 327.16 523.83 333.19 537.1"/><path class="cls-17" d="M401.47,322.39c.23,1.11,1,1.92,1.73,1.75s1.13-1.17.92-2.29-1-1.92-1.73-1.74S401.24,321.2,401.47,322.39Z"/><path class="cls-18" d="M402.37,324.31a40.72,40.72,0,0,0,7.26,8.45,6.53,6.53,0,0,1-5.11,2.09Z"/><path class="cls-17" d="M396.06,317a.74.74,0,0,0,.5-.22A5.31,5.31,0,0,1,401,315a.68.68,0,0,0,.78-.55.67.67,0,0,0-.55-.77h0a6.63,6.63,0,0,0-5.76,2.2A.68.68,0,0,0,396,317Z"/><path class="cls-16" d="M369.72,338.07c2,10.31,4,29.22-3.17,36.09,0,0,2.83,10.48,22,10.48,21.12,0,10.08-10.46,10.08-10.46-11.52-2.76-11.21-11.29-9.21-19.31Z"/><path class="cls-17" d="M361.76,377.83c-1.67-3-3.54-6.41.3-7.47,4.21-1.19,27.3-2.38,35.27-.17s5.75,8.25,5.75,8.25Z"/><path class="cls-8" d="M302.21,846a4.59,4.59,0,0,0,3.47-.56,1.41,1.41,0,0,0,.16-1.59,1.62,1.62,0,0,0-1-.89c-1.92-.71-6.14,1.54-6.34,1.64a.32.32,0,0,0,.06.59A18.5,18.5,0,0,0,302.21,846Zm2.05-2.5.41.1a.86.86,0,0,1,.55.52.87.87,0,0,1,0,.86c-.69.71-3.55.42-5.6-.17a11,11,0,0,1,4.64-1.31Z"/><path class="cls-8" d="M298.68,845.25a.19.19,0,0,0,.15,0c1.54-.64,4.69-3.4,4.55-5a1.07,1.07,0,0,0-1-1,1.73,1.73,0,0,0-1.46.27c-1.76,1.15-2.55,5.16-2.57,5.33a.31.31,0,0,0,.12.31A.2.2,0,0,0,298.68,845.25Zm3.2-4.94H302c.42.14.42.33.42.43,0,.94-2.19,2.91-3.84,3.72a8,8,0,0,1,2.44-4,1.09,1.09,0,0,1,.84-.17Z"/><path class="cls-8" d="M404.06,859.41c1.81,0,3.55-.25,4.13-1.07a1.23,1.23,0,0,0,0-1.46,1.74,1.74,0,0,0-1.06-.79c-2.34-.63-7.27,2.19-7.48,2.31a.32.32,0,0,0-.2.41.31.31,0,0,0,.2.2A25.12,25.12,0,0,0,404.06,859.41Zm2.23-2.74a2.36,2.36,0,0,1,.65,0,1,1,0,0,1,.66.46c.23.42.15.63,0,.75-.66.9-4.23.92-6.84.56a15,15,0,0,1,5.53-1.67Z"/><path class="cls-8" d="M399.9,859h0c1.69-.77,5.07-3.84,4.82-5.41,0-.37-.33-.85-1.25-.94a2.56,2.56,0,0,0-1.92.57c-1.79,1.48-2.17,5.28-2.19,5.44a.38.38,0,0,0,.13.3A.46.46,0,0,0,399.9,859Zm3.43-5.76h.2c.61,0,.65.31.65.39.15.94-2.13,3.34-3.84,4.39a8,8,0,0,1,1.92-4.36,2,2,0,0,1,1-.38Z"/><polygon class="cls-16" points="384.29 858.68 398.4 858.68 399.8 826.03 385.69 826.03 384.29 858.68"/><polygon class="cls-16" points="282.65 843.12 296.66 844.63 307.24 812.94 293.23 811.42 282.65 843.12"/><path class="cls-17" d="M297.83,843.12l-15.74-1.71a1.24,1.24,0,0,0-1.3.82l-4.11,12.17A2.06,2.06,0,0,0,278,857a2,2,0,0,0,.49.1c5.5.52,8.21.48,15.14,1.23,4.26.46,13,1.92,18.89,2.49s7.27-5.08,4.93-5.87c-10.55-3.53-14.26-7.24-17.39-10.73A3.49,3.49,0,0,0,297.83,843.12Z"/><path class="cls-17" d="M398.3,857.05H383a1.21,1.21,0,0,0-1.19,1L379,870.55a2.06,2.06,0,0,0,1.54,2.46,2,2,0,0,0,.48,0c5.57-.09,13.59-.42,20.58-.42,8.16,0,15.2.44,24.78.44,5.76,0,7.39-5.85,5-6.39-11-2.4-20-2.67-29.56-8.54A6.65,6.65,0,0,0,398.3,857.05Z"/><path class="cls-16" d="M419.32,381.38c4,1.25,8.47,2.61,12.75,3.84s8.68,2.28,13,3.22a152.15,152.15,0,0,0,25.82,3.79c2.08,0,4.13.13,6.11,0h1.21a3.78,3.78,0,0,0,1-.1c.77-.12,1.65-.31,2.58-.54a96,96,0,0,0,12-4.16c8.26-3.38,16.72-7.34,25.09-11.16l5.86,8.82a168,168,0,0,1-23.38,17.27,87.73,87.73,0,0,1-13.77,7,37.86,37.86,0,0,1-4.18,1.38c-.81.19-1.54.38-2.44.54l-1.29.21-1,.11c-2.69.35-5.32.48-7.93.56a144.31,144.31,0,0,1-30-2.88c-4.82-1-9.59-1.92-14.3-3.3s-9.27-2.59-14.16-4.36Z"/><path class="cls-8" d="M341.29,377.37c-13.2,3-26.56,41.67-26.56,41.67l27.2,19.51s7.67-18,15.06-33.73C364.83,388.39,354.81,374.26,341.29,377.37Z"/><path class="cls-11" d="M341.29,377.37c-13.2,3-26.56,41.67-26.56,41.67l27.2,19.51s7.67-18,15.06-33.73C364.83,388.39,354.81,374.26,341.29,377.37Z"/><path class="cls-8" d="M420.3,378.08s15,17,.83,121.89H345.71c-.52-11.52,6.75-68.05-4.42-122.6a195.11,195.11,0,0,1,25.26-3.21,276.53,276.53,0,0,1,32.06,0A142.55,142.55,0,0,1,420.3,378.08Z"/><path class="cls-11" d="M420.3,378.08s15,17,.83,121.89H345.71c-.52-11.52,6.75-68.05-4.42-122.6a195.11,195.11,0,0,1,25.26-3.21,276.53,276.53,0,0,1,32.06,0A142.55,142.55,0,0,1,420.3,378.08Z"/><path class="cls-11" d="M420.3,378.08s-1.69-.46-4.43-1.1c-8.29.87-12.33,10.41-10.1,20.31,1.65,7.37,12.36,17.45,21.46,25C427,385.68,420.3,378.08,420.3,378.08Z"/><path class="cls-8" d="M401.82,399.73c6.73,11.67,43.57,23,43.57,23l12.36-33.14s-21.11-5.75-37.49-11.51C400,370.84,394.47,386.91,401.82,399.73Z"/><path class="cls-11" d="M401.82,399.73c6.73,11.67,43.57,23,43.57,23l12.36-33.14s-21.11-5.75-37.49-11.51C400,370.84,394.47,386.91,401.82,399.73Z"/><path class="cls-16" d="M516.51,379.48l2.34-14.68,13,3.72s1.92,13.07-7.56,16.93Z"/><polygon class="cls-16" points="524.46 351.84 535.44 361.07 531.87 368.52 518.85 364.8 524.46 351.84"/><polygon class="cls-10" points="399.78 826.03 399.07 842.87 384.96 842.87 385.67 826.03 399.78 826.03"/><polygon class="cls-10" points="293.23 811.42 307.24 812.96 301.79 829.3 287.75 827.76 293.23 811.42"/><path class="cls-16" d="M363.81,327.57c3.63,13.54,5.07,21.64,13.44,27.24,12.55,8.47,28.18-1.24,28.66-15.56.44-12.9-5.55-32.85-20.06-35.57a19.19,19.19,0,0,0-22,23.89Z"/><path class="cls-17" d="M395.62,286.92a6.14,6.14,0,0,1-2.73,4.53c-.63-7.1-3.45-13.94-9.77-17.28,1,3-1.92,7.79-6.26,12.67a13.42,13.42,0,0,0-6.72-8.39c-2.88,11.15-12.09,13-19.4,19.87a11.07,11.07,0,0,0-2.44,12.21c-1.92-.87-4.2-.65-5.86,3.65a10.57,10.57,0,0,1,5.28-1.64c-1.3,1.23-2.32,3.36-1.57,8.16,1.3,8.12,18,32.25,28.52,31,11.52-1.32,13.63-14.66,13.9-26.7l.44-.23C397,320.57,406.87,297.88,395.62,286.92Z"/><path class="cls-16" d="M383.1,327.8a15.81,15.81,0,0,0,6.95,7.41c4.07,2.12,6.33-1,5.43-5-.82-3.66-3.84-9.15-8.12-9.59S381.41,324,383.1,327.8Z"/><path class="cls-8" d="M394.39,500s-16,107.77-24.8,148.16C360,692.28,309.37,827.7,309.37,827.7L284,823S321.79,695.9,327.28,652.2c6-47.51,18.43-152.15,18.43-152.15Z"/><path class="cls-10" d="M384.27,538.36C365.77,542,367.73,611,370,646.49c5.34-25.08,13.15-73.36,18.49-107.63A6.38,6.38,0,0,0,384.27,538.36Z"/><path class="cls-8" d="M421.13,500s1.92,105.44.42,148.44C420,693.14,404.27,839.6,404.27,839.6H380.43s-.88-143.85-1.92-187.77C377.36,603.94,371.56,500,371.56,500Z"/><path class="cls-10" d="M400.3,822.31l-1-.12c4.21-40.52,14.15-138.57,15.36-173.72,1.29-36,.12-116.48-.27-140.28l1-.12c.38,23.81,1.55,104.31.27,140.38C414.45,683.66,404.5,781.77,400.3,822.31Z"/><path class="cls-8" d="M315.15,819.1c.11,0-4.42,9.27-4.42,9.27l-28.58-5.26,2.13-8.61Z"/><path class="cls-19" d="M315.15,819.1c.11,0-4.42,9.27-4.42,9.27l-28.58-5.26,2.13-8.61Z"/><path class="cls-8" d="M408.92,830.08c.11,0-1.34,9.93-1.34,9.93H378.51l-.78-8.85Z"/><path class="cls-19" d="M408.92,830.08c.11,0-1.34,9.93-1.34,9.93H378.51l-.78-8.85Z"/></g></svg>