<svg id="Layer_1" data-name="Layer 1" xmlns="http://www.w3.org/2000/svg" viewBox="0 0 1024 1024"><defs><style>.cls-1{fill:#ebebeb;}.cls-2,.cls-8{fill:#e6e6e6;}.cls-3{fill:#f0f0f0;}.cls-4{fill:#f5f5f5;}.cls-5{fill:#e0e0e0;}.cls-10,.cls-12,.cls-18,.cls-6{fill:#fff;}.cls-7{fill:#fafafa;}.cls-18,.cls-8{opacity:0.5;}.cls-10,.cls-12,.cls-13,.cls-16,.cls-18,.cls-20,.cls-8{isolation:isolate;}.cls-20,.cls-9{fill:#6f5fff;}.cls-10{opacity:0.7;}.cls-11,.cls-20{opacity:0.4;}.cls-12{opacity:0.8;}.cls-13{opacity:0.3;}.cls-14{fill:#ffc3bd;}.cls-15{fill:#263238;}.cls-16,.cls-17{opacity:0.2;}.cls-19{fill:#ed847e;}</style></defs><title>DR Splash Screens </title><g id="freepik--background-complete--inject-2"><rect class="cls-1" x="26.5" y="826.06" width="971" height="0.49"/><rect class="cls-1" x="835.89" y="857.31" width="64.32" height="0.49"/><rect class="cls-1" x="532.06" y="851.23" width="25.03" height="0.49"/><rect class="cls-1" x="652.85" y="853.29" width="52.71" height="0.49"/><rect class="cls-1" x="724.98" y="839.28" width="108.97" height="0.49"/><rect class="cls-1" x="128.38" y="861.75" width="51.52" height="0.49"/><rect class="cls-1" x="197.18" y="861.75" width="44.67" height="0.49"/><rect class="cls-1" x="280.9" y="850.99" width="118.09" height="0.49"/><path class="cls-1" d="M486.75,739.45h-375a11.1,11.1,0,0,1-11.07-11.09V201.24a11.09,11.09,0,0,1,11.07-11h375a11.08,11.08,0,0,1,11.09,11.08h0v527A11.09,11.09,0,0,1,486.75,739.45Zm-375-548.82a10.6,10.6,0,0,0-10.58,10.61V728.36A10.59,10.59,0,0,0,111.77,739h375a10.62,10.62,0,0,0,10.61-10.6V201.24a10.63,10.63,0,0,0-10.61-10.61Z"/><path class="cls-1" d="M906.83,739.45h-375a11.12,11.12,0,0,1-11.09-11.09V201.24a11.11,11.11,0,0,1,11.09-11h375a11.09,11.09,0,0,1,11,11V728.36A11.09,11.09,0,0,1,906.83,739.45Zm-375-548.82a10.64,10.64,0,0,0-10.61,10.61V728.36A10.63,10.63,0,0,0,531.83,739h375a10.62,10.62,0,0,0,10.6-10.6V201.24a10.63,10.63,0,0,0-10.6-10.61Z"/><path class="cls-2" d="M540.94,659c-3.89-11.17-34.55,4-47,22.52-8.29,12.32-13.36,25.48-15.71,43.16.27-20.16.6-41.84.91-62.28,2.53-5.09,8.27-16.84,12.39-26.16,13.81-31.08,46.61-42.73,57.93-62.26,14.86-25.72,14.76-64.27,2.14-78.19-11-12.08-47.37,69.68-51.47,78.81A242.54,242.54,0,0,0,479.3,652c.31-19.21.6-36.9.83-50.49.78-44.38,1.73-58.65,2.18-63,1.51-2.14,3.3-4.64,4.35-6,8.79-11.32,28.33-24.82,38.08-41.29,14.25-24.06,12-52.84,1.94-63.56-10.45-11.21-28.93,15.28-38.74,41.52s-5.61,51.36-8.37,73.17c-.56,4.28-1.17,20.51-1.71,43-3-24.24-8.91-40.47-19.91-55.6-13.59-18.61-25.24-41.27-36.29-38.34s-5.15,32.9,3.67,54c7.77,18.76,46.61,37.44,52.24,52.53-.68,30.53-1.28,69.22-1.71,105.22-3.05-18.6-.95-20.16-13.46-48.65-7.42-16.93-37.89-37.81-41.52-26.17s1.94,33.61,13.38,49c9.28,12.43,29.87,12.41,34.63,20.12,1.12,1.81,4.79,8.7,6.89,12.66-.5,44-.72,82.79-.46,96l1.94.13c0-3.42.15-25.79.54-55.38,5-15.75,38.67-24.94,49.06-41.33C537.79,692.43,545.62,672.43,540.94,659Z"/><path class="cls-3" d="M509.3,826.06H444.71a7.41,7.41,0,0,1-7.28-5.94l-4.59-22.61h88.33l-4.61,22.61A7.39,7.39,0,0,1,509.3,826.06Z"/><path class="cls-3" d="M523,806.27H431a4.34,4.34,0,0,1-4.31-3.88l-1.94-16.72a4.36,4.36,0,0,1,3.85-4.8l.46,0h95.78a4.34,4.34,0,0,1,4.32,4.34,3.87,3.87,0,0,1,0,.48l-1.94,16.72A4.32,4.32,0,0,1,523,806.27Z"/><rect class="cls-3" x="804.8" y="554.02" width="61.85" height="263.94"/><rect class="cls-3" x="542" y="817.96" width="320.47" height="8.1"/><rect class="cls-4" x="537.85" y="554.02" width="266.93" height="263.94"/><rect class="cls-3" x="562.16" y="658.06" width="218.3" height="55.89"/><rect class="cls-3" x="562.16" y="729.99" width="218.3" height="55.89"/><path class="cls-4" d="M695.81,667.69h-49a6,6,0,0,1-6-6h0a6,6,0,0,1,6-6h49a6,6,0,0,1,6,6h0A6,6,0,0,1,695.81,667.69Z"/><rect class="cls-3" x="562.16" y="586.12" width="218.3" height="55.89"/><path class="cls-4" d="M646.81,595.76h49a6.06,6.06,0,0,0,6-6h0a6.06,6.06,0,0,0-6-6h-49a6.07,6.07,0,0,0-6,6h0A6.07,6.07,0,0,0,646.81,595.76Z"/><path class="cls-4" d="M646.81,739.62h49a6,6,0,0,0,6-6h0a6.06,6.06,0,0,0-6-6h-49a6.07,6.07,0,0,0-6,6h0A6,6,0,0,0,646.81,739.62Z"/><rect class="cls-3" x="532.35" y="546.49" width="272.42" height="7.54"/><rect class="cls-2" x="804.78" y="546.51" width="67.74" height="7.54"/><rect class="cls-5" x="312.77" y="430.8" width="61.12" height="395.26"/><polygon class="cls-2" points="157.02 826.06 361.65 826.06 383.15 339.55 178.52 339.55 157.02 826.06"/><polygon class="cls-3" points="127.17 826.06 353.53 826.06 375.01 339.55 148.67 339.55 127.17 826.06"/><polygon class="cls-6" points="331.37 802.21 349.47 363.42 170.83 363.42 152.71 802.21 331.37 802.21"/><polygon class="cls-7" points="254.61 802.21 315.33 363.42 296.28 363.42 235.56 802.21 254.61 802.21"/><polygon class="cls-7" points="227.48 802.21 288.2 363.42 255.71 363.42 194.99 802.21 227.48 802.21"/><rect class="cls-2" x="596.42" y="240.39" width="247.66" height="231.68"/><rect class="cls-4" x="588.71" y="240.39" width="251.76" height="231.68"/><rect class="cls-2" x="596.42" y="472.07" width="247.66" height="9.48"/><rect class="cls-4" x="581.83" y="472.07" width="234.94" height="9.48"/><rect class="cls-7" x="599.47" y="254.74" width="230.24" height="202.96"/><rect class="cls-2" x="599.49" y="254.76" width="1.53" height="202.96"/><polygon class="cls-6" points="791.53 457.7 751.72 254.74 699.54 254.74 739.35 457.7 791.53 457.7"/><polygon class="cls-6" points="730.9 457.7 691.09 254.74 667.53 254.74 707.35 457.7 730.9 457.7"/><rect class="cls-1" x="819.56" y="231.24" width="2.47" height="216.65" rx="1.18"/><rect class="cls-8" x="583.08" y="231.22" width="265.18" height="35.46"/><rect class="cls-5" x="583.08" y="231.22" width="265.18" height="4.41"/><rect class="cls-1" x="581.83" y="229.3" width="267.69" height="3.86" rx="1.69"/><path class="cls-6" d="M582.75,267.62H848.59a.92.92,0,0,0,.91-.92v0h0a.91.91,0,0,0-.91-.91H582.75a.93.93,0,0,0-.93.91h0a.93.93,0,0,0,.93.94Z"/></g><g id="freepik--Shadow--inject-2"><ellipse id="freepik--path--inject-2" class="cls-4" cx="512" cy="891.78" rx="376.54" ry="21.98"/></g><g id="freepik--Folder--inject-2"><rect class="cls-9" x="152.19" y="611.83" width="1.98" height="30.1" transform="translate(-71.78 22.03) rotate(-6.67)"/><rect class="cls-9" x="156.12" y="652.9" width="1.98" height="15.19" transform="translate(-75.65 22.72) rotate(-6.67)"/><path class="cls-9" d="M287.87,550.86l-2.33-6.55a21.08,21.08,0,0,0-22.33-13.86L170.4,541.3a21.12,21.12,0,0,0-18.51,23.42L178.3,790.58a14.47,14.47,0,0,0,16,12.7h0l332.08-38.84a14.47,14.47,0,0,0,12.74-16v0L516.27,553.13a14.46,14.46,0,0,0-16-12.7L307.39,563A18.47,18.47,0,0,1,287.87,550.86Z"/><rect class="cls-9" x="205.59" y="461.67" width="106.99" height="147.4" transform="translate(-99.63 60.96) rotate(-11.27)"/><rect class="cls-10" x="205.59" y="461.67" width="106.99" height="147.4" transform="translate(-99.63 60.96) rotate(-11.27)"/><g class="cls-11"><path class="cls-9" d="M283.13,487.37l-64.63,12.9a5.82,5.82,0,0,1-6.81-4.55h0a5.82,5.82,0,0,1,4.54-6.81l64.67-12.84a5.84,5.84,0,0,1,6.82,4.54h0A5.82,5.82,0,0,1,283.13,487.37Z"/><path class="cls-9" d="M287.89,511.32l-64.63,12.95a5.82,5.82,0,0,1-6.79-4.54h0a5.82,5.82,0,0,1,4.54-6.8l64.63-12.88a5.84,5.84,0,0,1,6.8,4.55h0A5.83,5.83,0,0,1,287.89,511.32Z"/><path class="cls-9" d="M292.65,535.22,228,548.1a5.83,5.83,0,0,1-6.8-4.54h0a5.83,5.83,0,0,1,4.55-6.8l64.63-12.9a5.83,5.83,0,0,1,6.79,4.55h0A5.81,5.81,0,0,1,292.65,535.22Z"/><path class="cls-9" d="M297.43,559.23,232.8,572.1a5.82,5.82,0,0,1-6.82-4.54h0a5.83,5.83,0,0,1,4.55-6.82l64.63-12.87a5.81,5.81,0,0,1,6.81,4.54h0A5.84,5.84,0,0,1,297.43,559.23Z"/><path class="cls-9" d="M284.51,586.55l-46.95,9.36a5.83,5.83,0,0,1-6.8-4.54h0a5.82,5.82,0,0,1,4.54-6.82l47-9.36a5.83,5.83,0,0,1,6.8,4.54h0A5.82,5.82,0,0,1,284.51,586.55Z"/></g><rect class="cls-9" x="350.14" y="431.35" width="106.99" height="147.4" transform="translate(-64.73 59.37) rotate(-7.79)"/><rect class="cls-10" x="350.14" y="431.35" width="106.99" height="147.4" transform="translate(-64.73 59.37) rotate(-7.79)"/><g class="cls-11"><path class="cls-9" d="M430.55,458.63l-65.29,8.93a5.82,5.82,0,0,1-6.52-4.95h0a5.82,5.82,0,0,1,4.95-6.52L429,447.15a5.83,5.83,0,0,1,6.52,5h0A5.82,5.82,0,0,1,430.55,458.63Z"/><path class="cls-9" d="M433.85,482.77l-65.29,8.93a5.82,5.82,0,0,1-6.52-4.95h0a5.81,5.81,0,0,1,4.95-6.5l65.29-8.94a5.84,5.84,0,0,1,6.53,4.94h0A5.83,5.83,0,0,1,433.85,482.77Z"/><path class="cls-9" d="M389.85,513.4l-18,2.46a5.82,5.82,0,0,1-6.52-4.95h0a5.83,5.83,0,0,1,5-6.53l18-2.46a5.82,5.82,0,0,1,6.51,4.95h0A5.84,5.84,0,0,1,389.85,513.4Z"/><path class="cls-9" d="M424.75,508.62l-18,2.46a5.82,5.82,0,0,1-6.5-4.95h0a5.82,5.82,0,0,1,4.95-6.52l18-2.45a5.82,5.82,0,0,1,6.53,4.93h0A5.84,5.84,0,0,1,424.75,508.62Z"/><path class="cls-9" d="M440.46,531.07,375.17,540a5.82,5.82,0,0,1-6.53-5h0a5.83,5.83,0,0,1,4.95-6.51l65.29-8.95a5.83,5.83,0,0,1,6.53,4.95h0A5.83,5.83,0,0,1,440.46,531.07Z"/><path class="cls-9" d="M425.93,557.65l-47.46,6.49a5.83,5.83,0,0,1-6.51-4.93h0a5.83,5.83,0,0,1,4.93-6.53l47.47-6.48a5.82,5.82,0,0,1,6.5,4.93h0A5.82,5.82,0,0,1,425.93,557.65Z"/></g><rect class="cls-9" x="246.23" y="450.46" width="106.99" height="147.4" transform="matrix(1, -0.09, 0.09, 1, -44.37, 28)"/><rect class="cls-12" x="246.23" y="450.46" width="106.99" height="147.4" transform="matrix(1, -0.09, 0.09, 1, -44.37, 28)"/><g class="cls-11"><path class="cls-9" d="M328.89,479.14l-65.66,5.71a5.82,5.82,0,0,1-6.27-5.26h0a5.82,5.82,0,0,1,5.26-6.26l65.66-5.82a5.82,5.82,0,0,1,6.27,5.26h0a5.84,5.84,0,0,1-5.23,6.37Z"/><path class="cls-9" d="M331,503.41l-65.65,5.83a5.83,5.83,0,0,1-6.28-5.26h0a5.83,5.83,0,0,1,5.27-6.28L330,491.88a5.83,5.83,0,0,1,6.28,5.26h0A5.82,5.82,0,0,1,331,503.41Z"/><path class="cls-9" d="M333.12,527.69l-65.66,5.83a5.83,5.83,0,0,1-6.27-5.27h0a5.82,5.82,0,0,1,5.26-6.27l65.66-5.83a5.83,5.83,0,0,1,6.27,5.27h0A5.82,5.82,0,0,1,333.12,527.69Z"/><path class="cls-9" d="M335.28,552l-65.66,5.83a5.82,5.82,0,0,1-6.27-5.26h0a5.83,5.83,0,0,1,5.26-6.28l65.66-5.7a5.82,5.82,0,0,1,6.27,5.26h0A5.82,5.82,0,0,1,335.28,552Z"/><path class="cls-9" d="M319.41,577.81,271.7,582a5.84,5.84,0,0,1-6.34-5.26h0a5.84,5.84,0,0,1,5.27-6.28l47.71-4.15a5.83,5.83,0,0,1,6.28,5.26h0A5.83,5.83,0,0,1,319.41,577.81Z"/></g><rect class="cls-9" x="373.12" y="441.45" width="106.99" height="147.4" transform="translate(-24.31 21.14) rotate(-2.76)"/><rect class="cls-12" x="373.12" y="441.45" width="106.99" height="147.4" transform="translate(-24.31 21.14) rotate(-2.76)"/><g class="cls-11"><path class="cls-9" d="M457.51,471.25l-65.82,3.19a5.84,5.84,0,0,1-6.06-5.5h0a5.84,5.84,0,0,1,5.5-6.06L457,459.7a5.82,5.82,0,0,1,6.06,5.5h0A5.81,5.81,0,0,1,457.51,471.25Z"/><path class="cls-9" d="M458.69,495.61l-65.83,3.16a5.83,5.83,0,0,1-6.06-5.49h0a5.83,5.83,0,0,1,5.51-6.06L458.13,484a5.83,5.83,0,0,1,6.06,5.52h0A5.84,5.84,0,0,1,458.69,495.61Z"/><path class="cls-9" d="M412.18,522.33,394,523.2a5.82,5.82,0,0,1-6.06-5.49h0a5.83,5.83,0,0,1,5.5-6.06l18.14-.9a5.83,5.83,0,0,1,6.06,5.52h0A5.84,5.84,0,0,1,412.18,522.33Z"/><path class="cls-9" d="M447.35,520.54l-18.14.88a5.84,5.84,0,0,1-6.06-5.5h0a5.84,5.84,0,0,1,5.5-6.06l18.14-.87a5.83,5.83,0,0,1,6.06,5.49h0A5.83,5.83,0,0,1,447.35,520.54Z"/><path class="cls-9" d="M461,544.29l-65.83,3.17a5.84,5.84,0,0,1-6.06-5.5h0a5.83,5.83,0,0,1,5.51-6.06l65.82-3.18a5.83,5.83,0,0,1,6.06,5.51h0A5.82,5.82,0,0,1,461,544.29Z"/><path class="cls-9" d="M444.22,569.5l-47.83,2.31a5.83,5.83,0,0,1-6.06-5.49h0a5.82,5.82,0,0,1,5.5-6.06L443.66,558a5.82,5.82,0,0,1,6.06,5.49h0A5.84,5.84,0,0,1,444.22,569.5Z"/></g><path class="cls-9" d="M317.51,555l-1.71-6.39A18.69,18.69,0,0,0,295,535.05l-92.81,10.86a23.29,23.29,0,0,0-20.47,23L187,790a12.76,12.76,0,0,0,13,12.54,12.49,12.49,0,0,0,1.73-.15l332.08-38.84a16,16,0,0,0,14-15.74L543.27,556.7a12.78,12.78,0,0,0-13-12.53,13.75,13.75,0,0,0-1.7.14L335.72,566.86A16.32,16.32,0,0,1,317.51,555Z"/><path class="cls-13" d="M317.51,555l-1.71-6.39A18.69,18.69,0,0,0,295,535.05l-92.81,10.86a23.29,23.29,0,0,0-20.47,23L187,790a12.76,12.76,0,0,0,13,12.54,12.49,12.49,0,0,0,1.73-.15l332.08-38.84a16,16,0,0,0,14-15.74L543.27,556.7a12.78,12.78,0,0,0-13-12.53,13.75,13.75,0,0,0-1.7.14L335.72,566.86A16.32,16.32,0,0,1,317.51,555Z"/></g><g id="freepik--Character--inject-2"><path class="cls-14" d="M642.11,448.75c-1.43,7.2-3,14.31-4.7,21.36s-3.41,14.18-5.3,21.22l-2.87,10.55-.37,1.36c-.17.58-.37,1.16-.6,1.77a17.93,17.93,0,0,1-1.94,3.74,13.46,13.46,0,0,1-3.64,3.69,11.64,11.64,0,0,1-5.3,1.95,15.23,15.23,0,0,1-8.29-1.77,30.46,30.46,0,0,1-5.4-3.75,46.84,46.84,0,0,1-7.9-8.91l5.53-4.82a68.42,68.42,0,0,0,8.35,5.56,20.8,20.8,0,0,0,4,1.72c1.19.39,2.24.33,2.24.14s-.2,0-.29,0,0,0,0-.33A7,7,0,0,1,616,501l.45-2.15,2.25-10.6,4.57-21.21c1.47-7.07,3.07-14.16,4.6-21.15Z"/><path class="cls-15" d="M635.67,426.55c-16.57,12.68-15.89,36.59-15.89,36.59l29.62,7.08s9.11-24,5.42-32.83C651,428.22,645,419.4,635.67,426.55Z"/><path class="cls-14" d="M602.81,495.43l-10.9-10.89-5.82,17s9.2,5,18,.27Z"/><polygon class="cls-14" points="576.82 482.85 574.82 496.33 586.03 501.59 591.91 484.54 576.82 482.85"/><polygon class="cls-14" points="731.68 877.45 715.02 879.08 697.67 839.4 714.34 837.77 731.68 877.45"/><polygon class="cls-14" points="839.03 818.8 826.51 830.54 799.5 800.85 812.02 789.1 839.03 818.8"/><path class="cls-15" d="M820.78,824.91l9.4-16.93a1.38,1.38,0,0,1,1.71-.64l14.47,5.51a2.76,2.76,0,0,1,1.47,3.61c0,.1-.09.19-.13.28-3.38,5.82-5.31,8.5-9.44,16-2.55,4.58-7.5,15.09-11,21.36s-10,3.21-9.07.26c4-13.25,3.26-20.61,2.13-26.44A4.51,4.51,0,0,1,820.78,824.91Z"/><path class="cls-15" d="M712.8,873.93h20.47a1.66,1.66,0,0,1,1.61,1.24l4.45,16.18a2.53,2.53,0,0,1-1.75,3.14,2.26,2.26,0,0,1-.73.1H689.71c-7.49,0-9.05-7.55-6-8.25,13.89-3.07,21.87-7.3,26.16-11.34A4.23,4.23,0,0,1,712.8,873.93Z"/><polygon class="cls-16" points="697.7 839.42 706.63 859.87 724.01 859.87 714.36 837.79 697.7 839.42"/><polygon class="cls-16" points="812.02 789.12 799.5 800.87 813.44 816.17 825.97 804.41 812.02 789.12"/><path class="cls-15" d="M640.68,424.1s-7.5,3.28,17.63,102.72l69.8-6c-3.62-28.3-5.17-45.82,3.36-105.3a205.58,205.58,0,0,0-30-1.34,222.81,222.81,0,0,0-31.69,2.74A294.23,294.23,0,0,0,640.68,424.1Z"/><path class="cls-6" d="M701.5,413.58h8.62c2.82,4.33-6.31,23.3-21.36,35.71a38.18,38.18,0,0,0-12.14-17.59Z"/><path class="cls-6" d="M669.81,416.63s-1.77.25-6,1.22c-2.82,4.33-7.58,22.84.71,32.28a37.25,37.25,0,0,1,12-18.28Z"/><path class="cls-14" d="M695.27,378.72c-1.11,10.37-1.5,29.13,6.23,35.42,0,0-8.25,8.43-24.93,17.71-12.14-8.39-6.76-15-6.76-15,11.13-3.69,10.1-12.1,7.44-19.87Z"/><path class="cls-9" d="M676.27,431.91s10.24-11.15,15.54-9,1.2,6,.74,9.55,2.06,13.15-5,10.66S676.27,431.91,676.27,431.91Z"/><path class="cls-9" d="M675.87,431.68s-4.84-8.55-10.06-7.4-2.12,4.13-1.65,7.36c.6,4.11-3.75,12,2.54,9.71S675.87,431.68,675.87,431.68Z"/><g class="cls-17"><path d="M673.19,429.83a11.08,11.08,0,0,0,1,5,23.13,23.13,0,0,0,1.69-3.14,24,24,0,0,0-2.47-3.44A4.4,4.4,0,0,0,673.19,429.83Z"/><path d="M680,428.3c-2.19,1.94-3.71,3.61-3.71,3.61a26.71,26.71,0,0,0,2,3.36,6.72,6.72,0,0,0,1.94-4.41A4.66,4.66,0,0,0,680,428.3Z"/></g><path class="cls-9" d="M676.16,435.4c-1.46,0-2.35-1.57-2.45-5.32s2.78-1.67,2.78-1.67,3.88-1.94,3.18,2.55C679.17,434.51,677.65,435.4,676.16,435.4Z"/><path class="cls-16" d="M687.93,386.19,677.26,397a34,34,0,0,1,1.46,5.54c4.29-1,10.51-5.46,10.57-10A18.08,18.08,0,0,0,687.93,386.19Z"/><path class="cls-15" d="M678.78,343.66S667.13,359.8,665.19,367c-7.93,4.62-9.52-18.12-5.33-32.14C673,343,678.78,343.66,678.78,343.66Z"/><path class="cls-14" d="M704.39,362.52c-4.33,16.57-5.82,23.67-16,30.61-15.28,10.45-34.68,1.51-35.4-16-.64-15.77,6.54-40.22,24.27-43.66a23.29,23.29,0,0,1,27.09,29.07Z"/><path class="cls-15" d="M713.41,355.9s-8.34,13.5-9.46,19.42c-6,4.1-8.59-13.89-6-25.25C700.69,340,713.41,355.9,713.41,355.9Z"/><path class="cls-15" d="M710.08,346.52c-2.4,1.82-5-4.91-2.56-10.08-4.6.29-10.14-2.45-8.95-6.89-9.07,3-12.43-6.18-11.38-12.57,1.26-7.77,8-9.42,12-7.38,0-3.47,8.78-10.72,12.12-5.05,6.19-2.19,16.18-1.51,16,6.1,4.1.12,16.2,4.76,11.65,15.54,5.34.31,8.24,7.08,5.27,12.21a8.27,8.27,0,0,1,3.43,11.16,8.44,8.44,0,0,1-1.74,2.24c2.46,5.13-5,12.76-9,11.85-3,4.64-7.67,8.13-10.7,4.17-5.82,4.29-12.52-1.16-11-5.36C708.55,361.45,701.81,350.44,710.08,346.52Z"/><path class="cls-9" d="M720,330.21c4.35,7.26,4,15.53-.8,18.35s-12.21-.68-16.56-7.94-4-15.54.79-18.36S715.6,323,720,330.21Z"/><path class="cls-15" d="M679.56,341.72c-.26,2.08-6,1.54-7.64-2.13-2.36,2.48-7.94,3.76-9.84,1.06-3.23,6.06-9.71,4.47-11.38,1.58s-2.78-8.28.58-9.34c-1.94-1.67-1.36-9.54,3.73-8.55,2.14-4.19,8-8.95,12.25-5.24,2.33-1.94,11.66-6,15.42,1.42a6.62,6.62,0,0,1,9.21,1.73,7.16,7.16,0,0,1,.72,1.37c6-1.57,8.66,3,8.64,5.5,4.29,1.16,4.58,8.58,1.94,10.17,1,3.75.49,7.77-3.46,7.42-.75,5.05-7.51,5.83-9.1,3.09C686.24,352.62,677.28,347.72,679.56,341.72Z"/><path class="cls-15" d="M669.3,327.39c4.92-6.8,22.84-9.71,38.36.56,14,9.19,13.07,30.53,1.94,29.39s-22.12-14.18-22.12-14.18Z"/><path class="cls-14" d="M705.75,377.47a12.49,12.49,0,0,1-7.34,6.1c-4.21,1.26-6.39-2.46-5.3-6.48,1-3.62,4.35-8.63,8.6-8.12a5.6,5.6,0,0,1,4,8.5Z"/><path class="cls-9" d="M658.31,526.82S634.7,631.3,650.54,705c10.57,49.32,48.55,149,48.55,149l29.79-.76S700,748.59,694.08,707.52c-10.19-70.34,15.34-185.06,15.34-185.06Z"/><path class="cls-16" d="M685.54,547.92l14.83,23.48a720.79,720.79,0,0,0-8.52,84.09C671,618,681,567.75,685.54,547.92Z"/><polygon class="cls-15" points="694.9 855.48 731.68 854.53 729.56 843.25 692.02 845.01 694.9 855.48"/><path class="cls-9" d="M673.58,525.71S687.42,636.5,717.46,697c24.26,48.86,89,118.47,89,118.47L823,798.41s-43.71-75.59-61.73-108c-44.22-79.62-8.08-140.31-33.15-169.54Z"/><polygon class="cls-15" points="804.78 817.69 826.14 796.87 819.05 787.22 796.39 809.82 804.78 817.69"/><path class="cls-9" d="M728.81,516.6l3.69,6c.29.45-.26,1-1,1.07L658.23,530c-.62,0-1.16-.21-1.24-.6l-1.16-6.2c-.1-.42.42-.83,1.1-.89l70.69-6.12A1.26,1.26,0,0,1,728.81,516.6Z"/><path class="cls-18" d="M728.81,516.6l3.69,6c.29.45-.26,1-1,1.07L658.23,530c-.62,0-1.16-.21-1.24-.6l-1.16-6.2c-.1-.42.42-.83,1.1-.89l70.69-6.12A1.26,1.26,0,0,1,728.81,516.6Z"/><path class="cls-9" d="M720,525.32l1.94-.16c.37,0,.64-.25.6-.48l-1.59-8c0-.25-.39-.41-.78-.37l-1.94.16c-.39,0-.66.25-.6.48l1.59,8A.72.72,0,0,0,720,525.32Z"/><path class="cls-9" d="M663.61,530.19l1.94-.15c.37,0,.65-.25.61-.49l-1.6-8a.7.7,0,0,0-.77-.37l-1.94.16c-.39,0-.66.25-.61.49l1.6,8C662.89,530.1,663.24,530.23,663.61,530.19Z"/><path class="cls-9" d="M691.81,527.77l1.94-.18c.39,0,.66-.25.6-.48l-1.59-8c0-.24-.39-.41-.76-.37l-1.94.17c-.37,0-.64.25-.6.49l1.59,8C691.09,527.63,691.42,527.79,691.81,527.77Z"/><path class="cls-15" d="M676.35,362c-.27,1.36-1.2,2.33-2.1,2.15s-1.39-1.43-1.14-2.79,1.22-2.33,2.12-2.16S676.62,360.58,676.35,362Z"/><ellipse class="cls-15" cx="659.27" cy="358.59" rx="2.52" ry="1.65" transform="translate(180.27 936.32) rotate(-78.88)"/><path class="cls-15" d="M660.18,356.29l-3.11-1.6S658.25,357.59,660.18,356.29Z"/><path class="cls-19" d="M666.21,362.33a36.66,36.66,0,0,1-6.56,7.77,6,6,0,0,0,4.68,1.94Z"/><path class="cls-15" d="M670.64,378.45a11.37,11.37,0,0,0,7.77-3,.34.34,0,0,0,.07-.49.36.36,0,0,0-.49-.07.39.39,0,0,0-.08.1,11,11,0,0,1-9.71,2.5.34.34,0,0,0-.39.26h0a.3.3,0,0,0,.22.38h.05A12.22,12.22,0,0,0,670.64,378.45Z"/><path class="cls-15" d="M685.62,356.66a.88.88,0,0,0,.35-.1.68.68,0,0,0,.23-.93,8,8,0,0,0-6.16-3.89.69.69,0,0,0-.7.66h0a.68.68,0,0,0,.66.7h0a6.58,6.58,0,0,1,5,3.32A.69.69,0,0,0,685.62,356.66Z"/><path class="cls-15" d="M656.64,351.18a.91.91,0,0,0,.33,0,6.67,6.67,0,0,1,6-.39.68.68,0,0,0,.89-.36.67.67,0,0,0-.27-.84,7.91,7.91,0,0,0-7.32.41.67.67,0,0,0-.25.91A.64.64,0,0,0,656.64,351.18Z"/><path class="cls-14" d="M734.44,431.37c1.32,1.28,2.23,2.29,3.26,3.43s1.94,2.27,2.87,3.42c1.85,2.31,3.62,4.68,5.27,7.11a117.29,117.29,0,0,1,8.7,15.36,100.58,100.58,0,0,1,6,16.64c.75,2.86,1.43,5.83,1.94,8.68a18.65,18.65,0,0,1-1.34,12.28,16.31,16.31,0,0,1-4.33,5.16,21.69,21.69,0,0,1-5.07,2.92,36.84,36.84,0,0,1-9.71,2.29,81.48,81.48,0,0,1-17.73-.24,182,182,0,0,1-33.21-7.05l1.79-7c5.28.87,10.72,1.68,16.08,2.25s10.76,1.07,16.06,1.18a84,84,0,0,0,15.36-.85,24.56,24.56,0,0,0,6.33-1.94,5.35,5.35,0,0,0,2.85-2.55,3.72,3.72,0,0,0,.24-1.4,9,9,0,0,0,0-1,7.37,7.37,0,0,0-.31-1.46c-.55-2.51-1.27-5-2-7.42a101.58,101.58,0,0,0-5.83-14.22,105,105,0,0,0-7.92-13.26q-2.19-3.21-4.58-6.21c-.8-1-1.64-2-2.45-2.94s-1.75-1.94-2.39-2.64Z"/><path class="cls-14" d="M697.36,495.39l-13.59-7.2-.62,18s9.71.62,15.26-3.88Z"/><polygon class="cls-9" points="673.52 592.24 684.74 470.26 660.76 451.89 587.54 445.15 574.82 583.15 673.52 592.24"/><polygon class="cls-12" points="673.52 592.24 684.74 470.26 660.76 451.89 587.54 445.15 574.82 583.15 673.52 592.24"/><polygon class="cls-9" points="684.74 470.26 660.76 451.89 667.05 473.88 684.74 470.26"/><circle class="cls-9" cx="583.41" cy="574.57" r="29.91"/><circle class="cls-6" cx="583.4" cy="574.55" r="23.85"/><polygon class="cls-9" points="598.15 572.47 587.62 571.25 588.85 560.72 581.31 559.83 580.09 570.36 569.56 569.11 568.67 576.67 579.19 577.91 577.95 588.42 585.5 589.31 586.73 578.78 597.25 580.03 598.15 572.47"/><path class="cls-20" d="M666.84,495.55h0a8.16,8.16,0,0,1-8.87,7.38h0L604.56,498a8.18,8.18,0,0,1-7.38-8.88h0a8.15,8.15,0,0,1,8.86-7.38h0l53.41,4.91a8.16,8.16,0,0,1,7.38,8.87Z"/><path class="cls-20" d="M648.64,517.59h0a8.15,8.15,0,0,1-8.86,7.38h0l-37.32-3.44a8.15,8.15,0,0,1-7.38-8.86h0a8.15,8.15,0,0,1,8.86-7.38h0l37.33,3.46A8.17,8.17,0,0,1,648.64,517.59Z"/><polygon class="cls-14" points="675.46 489.26 677.5 502.71 683.13 506.19 683.75 488.19 675.46 489.26"/><path class="cls-15" d="M731.45,415.52C740,417,752,441.58,752,441.58L730.44,461s-17.17-18.72-16.26-29.87C715,421.71,720.57,413.58,731.45,415.52Z"/><path class="cls-9" d="M817.44,834a2.16,2.16,0,0,0,.66-.1c2.06-.69,3.4-4.48,4-6.68a.36.36,0,0,0-.12-.35.32.32,0,0,0-.37,0c-.62.32-6.09,3.25-6.27,5.4a1.29,1.29,0,0,0,.58,1.21A2.42,2.42,0,0,0,817.44,834Zm3.88-6.17c-1,3-2.17,5-3.34,5.41a1.54,1.54,0,0,1-1.53-.35.61.61,0,0,1-.31-.6c0-1.32,3.2-3.4,5.09-4.46Z"/><path class="cls-9" d="M816.58,828.7a12.36,12.36,0,0,0,5.38-1.26.36.36,0,0,0,.16-.29.3.3,0,0,0-.18-.29c-.17-.1-4.5-2.49-6.83-1.66a2,2,0,0,0-1.28,1.21,1.36,1.36,0,0,0,.31,1.67A3.89,3.89,0,0,0,816.58,828.7Zm4.45-1.55c-1.84.79-5.44,1.28-6.45.42-.17-.15-.35-.38-.11-.91a1.32,1.32,0,0,1,.85-.81c1.58-.57,4.49.69,5.71,1.37Z"/><path class="cls-9" d="M703.73,877.23a26.25,26.25,0,0,0,5.58-.72.33.33,0,0,0,.2-.42.36.36,0,0,0-.2-.2c-.84-.41-8.27-3.88-10.14-2.56a1.07,1.07,0,0,0-.48,1,2.39,2.39,0,0,0,1,1.94A6.56,6.56,0,0,0,703.73,877.23Zm4.41-1.16c-2.19.4-6.27.95-8-.31a2,2,0,0,1-.74-1.42.44.44,0,0,1,.2-.45C700.67,873.17,705.06,874.71,708.14,876.07Z"/><path class="cls-9" d="M709.23,876.53a.45.45,0,0,0,.23,0,.33.33,0,0,0,.1-.35c0-.31-1.75-7.63-5.83-7.16-1,.13-1.3.62-1.34,1-.25,1.94,4.43,5.61,6.67,6.54Zm-5.09-6.93c2.59,0,4.08,4.27,4.59,6-2.43-1.28-5.83-4.33-5.62-5.51,0-.1,0-.37.76-.45Z"/><path class="cls-15" d="M675.59,359.32l-3.08-1.6S673.69,360.62,675.59,359.32Z"/></g></svg>