<svg id="Layer_1" data-name="Layer 1" xmlns="http://www.w3.org/2000/svg" viewBox="0 0 1024 1024"><defs><style>.cls-1{fill:#ebebeb;}.cls-2{fill:#f0f0f0;}.cls-3{fill:#f5f5f5;}.cls-4{fill:#e0e0e0;}.cls-12,.cls-16,.cls-17,.cls-5,.cls-9{fill:#fff;}.cls-6{fill:#e6e6e6;}.cls-7{fill:#263238;}.cls-8{fill:#ffc3bd;}.cls-18,.cls-9{opacity:0.1;}.cls-11,.cls-12,.cls-14,.cls-15,.cls-16,.cls-17,.cls-18,.cls-9{isolation:isolate;}.cls-10,.cls-14,.cls-15{fill:#6f5fff;}.cls-11,.cls-16{opacity:0.2;}.cls-12{opacity:0.5;}.cls-13{fill:#ed847e;}.cls-14{opacity:0.4;}.cls-15,.cls-17{opacity:0.3;}.cls-19{fill:#de5753;}</style></defs><title>DR Splash Screens </title><g id="freepik--background-complete--inject-2"><rect class="cls-1" x="45.22" y="777.99" width="959.79" height="0.48"/><rect class="cls-1" x="145.93" y="791.06" width="71.1" height="0.48"/><rect class="cls-1" x="369.63" y="801.45" width="136.29" height="0.48"/><rect class="cls-1" x="227.43" y="791.29" width="97.42" height="0.48"/><rect class="cls-1" x="826.07" y="805.65" width="93.43" height="0.48"/><rect class="cls-1" x="756.16" y="805.65" width="61.37" height="0.48"/><rect class="cls-1" x="577.35" y="797.55" width="119.03" height="0.48"/><path class="cls-1" d="M500.17,692.38H129.51a11,11,0,0,1-10.94-11v-521a11,11,0,0,1,10.94-10.87H500.17a11,11,0,0,1,11,11h0V681.42A11,11,0,0,1,500.17,692.38ZM129.51,149.9a10.48,10.48,0,0,0-10.46,10.49v521a10.48,10.48,0,0,0,10.46,10.48H500.17a10.5,10.5,0,0,0,10.48-10.48v-521a10.51,10.51,0,0,0-10.48-10.49Z"/><path class="cls-1" d="M915.39,692.38H544.72a11,11,0,0,1-11-11v-521a11,11,0,0,1,11-10.87H915.39a11,11,0,0,1,10.92,10.87v521A11,11,0,0,1,915.39,692.38ZM544.72,149.9a10.51,10.51,0,0,0-10.48,10.49v521a10.5,10.5,0,0,0,10.48,10.48H915.39a10.5,10.5,0,0,0,10.48-10.48v-521a10.5,10.5,0,0,0-10.48-10.49Z"/><path class="cls-2" d="M881.43,772.08H731.71a26.34,26.34,0,0,1-26.34-26.34h0V611.22a26.34,26.34,0,0,1,26.34-26.34H881.43v187.2Z"/><rect class="cls-3" x="853.87" y="584.88" width="55.15" height="187.2" rx="26.34"/><rect class="cls-2" x="533.28" y="653.93" width="328.1" height="118.15"/><path class="cls-4" d="M877.44,778H392.52a5.39,5.39,0,0,1-5.42-5.37v-.54H731.59l151.25.52A5.39,5.39,0,0,1,877.44,778Z"/><path class="cls-4" d="M423.84,507.22H738.35a36.72,36.72,0,0,1,36.72,36.72h0V680.63h-388V543.94a36.72,36.72,0,0,1,36.72-36.72h0Z"/><path class="cls-3" d="M449,507.22H767a35,35,0,0,1,35,34.95V680.65H414.07V542.17a35,35,0,0,1,35-34.95Z"/><path class="cls-4" d="M845.69,643.14H558.25a16.58,16.58,0,0,0-16.58,16.59h0v14.95a16.58,16.58,0,0,0,16.58,16.59H845.69a24.06,24.06,0,0,0,24-24.06v0h0a24,24,0,0,0-24-24.05Z"/><path class="cls-2" d="M532.43,772.08H382.71a26.34,26.34,0,0,1-26.34-26.34h0V611.22a26.34,26.34,0,0,1,26.34-26.34H532.43v187.2Z"/><rect class="cls-3" x="504.85" y="584.88" width="55.15" height="187.2" rx="26.34"/><rect class="cls-4" x="679.51" y="221.54" width="135.58" height="199.37"/><rect class="cls-3" x="683.22" y="221.54" width="140.03" height="199.37"/><rect class="cls-5" x="694.95" y="237.25" width="116.58" height="167.94"/><path class="cls-3" d="M738.73,329.33v12.78h0a29,29,0,0,0,29-29V300.32h0a29,29,0,0,0-29,29Z"/><path class="cls-3" d="M738.73,286.21V299h0a29,29,0,0,0,29-29v-12.8h0a29,29,0,0,0-29,29Z"/><path class="cls-3" d="M738.73,372.46v12.79h0a29,29,0,0,0,29-29V343.4h0a29,29,0,0,0-29,29Z"/><rect class="cls-1" x="170.96" y="237.25" width="442.77" height="140.67"/><rect class="cls-4" x="168.29" y="237.25" width="2.67" height="140.67"/><rect class="cls-3" x="192.78" y="259.07" width="399.12" height="97.02"/><polygon class="cls-5" points="288.44 356.09 255.28 356.09 281.24 259.07 314.39 259.07 288.44 356.09"/><polygon class="cls-5" points="319.26 356.09 300.09 356.09 326.04 259.07 345.22 259.07 319.26 356.09"/><polygon class="cls-5" points="486.13 356.09 466.96 356.09 492.91 259.07 512.09 259.07 486.13 356.09"/><polygon class="cls-6" points="343.37 617.11 236.05 617.11 222.77 471.3 330.11 471.3 343.37 617.11"/><polygon class="cls-2" points="348.94 617.11 241.6 617.11 228.33 471.3 335.68 471.3 348.94 617.11"/><polygon class="cls-5" points="256.26 600.97 245.94 487.44 320.99 487.44 331.32 600.97 256.26 600.97"/><rect class="cls-6" x="409.37" y="617.11" width="14.45" height="160.86"/><rect class="cls-3" x="418.33" y="617.11" width="10.04" height="160.86"/><rect class="cls-3" x="278.95" y="617.11" width="152.53" height="17.76"/><rect class="cls-6" x="258.03" y="634.87" width="14.45" height="143.12"/><rect class="cls-3" x="267.01" y="634.87" width="10.04" height="143.12"/><rect class="cls-6" x="166.58" y="634.87" width="14.45" height="143.12"/><rect class="cls-3" x="175.56" y="634.87" width="10.04" height="143.12"/><rect class="cls-6" x="317.92" y="634.87" width="14.45" height="143.12"/><rect class="cls-3" x="326.89" y="634.87" width="10.04" height="143.12"/><rect class="cls-6" x="166.58" y="617.11" width="112.37" height="17.76"/></g><g id="freepik--Shadow--inject-2"><ellipse id="freepik--path--inject-2" class="cls-3" cx="525.12" cy="842.95" rx="372.19" ry="21.73"/></g><g id="freepik--Character--inject-2"><path class="cls-7" d="M675.54,305c-7.33-4.59-28.39,0-25,23S627,345.18,632.87,372s53.88,66.61,83.42,39.58,4.65-38.95,5.2-71C721.88,321.48,713.24,287.35,675.54,305Z"/><path class="cls-7" d="M719,410.41a.56.56,0,0,1-.37-.15.49.49,0,0,1,0-.68h0c18.2-18.09,14-29.1,8.68-43-3-7.68-6.28-16.43-6.56-27.78-.29-12.24-4.77-29-16.42-35.85-8.25-4.88-18.85-4-31.48,2.51a.5.5,0,0,1-.65-.21.49.49,0,0,1,.18-.66h0c13-6.72,23.86-7.55,32.44-2.48,12,7.1,16.59,24.19,16.89,36.66.27,11.2,3.57,19.83,6.49,27.45,5.43,14.29,9.75,25.57-8.91,44.16A.5.5,0,0,1,719,410.41Z"/><path class="cls-8" d="M723.26,407.78l.52.73.77,1c.56.71,1.15,1.42,1.78,2.13a49.81,49.81,0,0,0,4.11,4.11,66.25,66.25,0,0,0,9.6,7.31A94.18,94.18,0,0,0,750.83,429c1.91.94,3.83,1.69,5.75,2.53.37.18,0,0-.25.16s-.46.29-.25.17a8,8,0,0,0,2.19-2.94,38,38,0,0,0,2.17-5.24,103.26,103.26,0,0,0,3.13-12.22c.87-4.23,1.54-8.55,2.13-12.9s1.13-8.78,1.61-13.1h7.82a178.69,178.69,0,0,1-.21,27.57,93.41,93.41,0,0,1-2.17,14.11,46.24,46.24,0,0,1-2.38,7.37,22.07,22.07,0,0,1-5.49,8,13.1,13.1,0,0,1-6.24,3,13.73,13.73,0,0,1-6.84-.6c-2.24-.8-4.53-1.47-6.75-2.4A93.27,93.27,0,0,1,732,436.23a84.17,84.17,0,0,1-12-8.68,59.39,59.39,0,0,1-5.37-5.39,36.47,36.47,0,0,1-2.52-3l-1.19-1.69c-.42-.64-.71-1.08-1.3-2.11Z"/><path class="cls-7" d="M720.63,400.68c18,11.52,16.49,18.5,16.49,18.5l-11.29,16.36S697,424,695.25,415C693.37,405.55,711.92,395.11,720.63,400.68Z"/><path class="cls-9" d="M720.63,400.68c18,11.52,16.49,18.5,16.49,18.5l-11.29,16.36S697,424,695.25,415C693.37,405.55,711.92,395.11,720.63,400.68Z"/><path class="cls-10" d="M738.19,417.57h0a1.55,1.55,0,0,1,.39,2.15l-11.52,16.53a1.51,1.51,0,0,1-2.1.41l-.05,0h0a1.54,1.54,0,0,1-.37-2.14h0L736.06,418A1.55,1.55,0,0,1,738.19,417.57Z"/><path class="cls-8" d="M768.58,389.26l-8.91-11.9,17.09-4.4s3.47,10.6-2.21,18.37Z"/><polygon class="cls-8" points="760.15 362.73 774.38 360.33 776.76 372.96 759.67 377.36 760.15 362.73"/><polygon class="cls-8" points="615.42 826.37 631.7 827.94 643.33 789.66 627.05 788.09 615.42 826.37"/><polygon class="cls-8" points="511.86 769.8 523.93 781.12 550 752.48 537.92 741.15 511.86 769.8"/><path class="cls-7" d="M529.52,775.69l-9.08-16.34a1.31,1.31,0,0,0-1.63-.61l-14,5.32a2.67,2.67,0,0,0-1.47,3.47c.05.13.12.25.18.37,3.27,5.64,5.13,8.21,9.1,15.35,2.46,4.42,7.24,14.57,10.64,20.68s9.6,3.09,8.75.23c-3.84-12.77-3.15-19.87-2-25.5A4.45,4.45,0,0,0,529.52,775.69Z"/><path class="cls-7" d="M633.63,823H613.88a1.64,1.64,0,0,0-1.55,1.19L608,839.78a2.49,2.49,0,0,0,1.73,3.05,2.33,2.33,0,0,0,.69.08h45.47c7.22,0,8.72-7.29,5.76-7.94-13.44-3-21.12-7.05-25.24-11A4,4,0,0,0,633.63,823Z"/><polygon class="cls-11" points="643.33 789.68 637.34 809.4 620.56 809.4 627.05 788.11 643.33 789.68"/><polygon class="cls-11" points="537.92 741.15 550 752.5 536.56 767.26 524.49 755.92 537.92 741.15"/><path class="cls-7" d="M720.63,400.68s6.53,4.43-34.84,94.31l-65.13-18c8.43-26.22,13-42.55,15.36-100.47a199.38,199.38,0,0,1,28.67,4,216.25,216.25,0,0,1,29.57,8.2A277.82,277.82,0,0,1,720.63,400.68Z"/><path class="cls-9" d="M720.63,400.68s6.53,4.43-34.84,94.31l-65.13-18c8.43-26.22,13-42.55,15.36-100.47a199.38,199.38,0,0,1,28.67,4,216.25,216.25,0,0,1,29.57,8.2A277.82,277.82,0,0,1,720.63,400.68Z"/><path class="cls-8" d="M676.86,348c-.76,10-3.74,28-12.15,32.49,0,0-4.89,16.65,16.34,22.77,18,5.16,13.22-14.57,13.22-14.57-9.9-5.47-3.83-15.16-1.92-26Z"/><path class="cls-11" d="M676.77,348c-.62,8.05-2.63,21.25-7.8,28.43,6,.6,15.36-1.22,18.13-5.76a66.09,66.09,0,0,0,3.32-9.8Z"/><path class="cls-8" d="M703.2,333.47c0,16.51.29,23.52-7.52,32.45-11.77,13.43-32,9.77-36.94-6.44-4.39-14.57-3.59-39.12,12.15-46.62a22.52,22.52,0,0,1,32.31,20.61Z"/><path class="cls-7" d="M669.09,324.32c9.27,12.95,40.46,31,42.56,13.61S697.81,303.38,682,305.08,661.16,313.3,669.09,324.32Z"/><path class="cls-8" d="M710,348.89A12,12,0,0,1,703.1,355c-4,1.33-6.21-2.2-5.27-6.1.86-3.51,4-8.43,8.1-8.06a5.38,5.38,0,0,1,4.1,8.08Z"/><path class="cls-10" d="M685.79,495.05s23.19,93.92,8,165c-10.2,47.59-46.94,143.72-46.94,143.72L618.05,803s27.81-100.87,33.55-140.55C661.45,594.58,638,481.84,638,481.84Z"/><path class="cls-11" d="M659.93,508.48l-14.36,22.65a696.19,696.19,0,0,1,8.16,81.13C674,576.11,664.42,527.68,659.93,508.48Z"/><polygon class="cls-7" points="651.99 805.17 615.42 804.27 617.88 791.26 654.65 794.02 651.99 805.17"/><path class="cls-10" d="M671.51,491.21S658.07,593.9,629.14,652.26c-23.4,47.13-85.84,114.21-85.84,114.21l-16-16.45s42.23-72.94,59.51-104.21c42.65-76.78,4.85-145.6,33.76-168.92Z"/><polygon class="cls-7" points="544.91 768.72 524.31 748.62 531.15 739.33 553.61 762.54 544.91 768.72"/><path class="cls-10" d="M620.74,472.86l-4.55,5c-.35.39,0,1,.8,1.21L685.31,498c.58.16,1.15,0,1.29-.34l2.2-5.76c.16-.39-.27-.87-.9-1.06l-66-18.25A1.23,1.23,0,0,0,620.74,472.86Z"/><path class="cls-12" d="M620.74,472.86l-4.55,5c-.35.39,0,1,.8,1.21L685.31,498c.58.16,1.15,0,1.29-.34l2.2-5.76c.16-.39-.27-.87-.9-1.06l-66-18.25A1.23,1.23,0,0,0,620.74,472.86Z"/><path class="cls-10" d="M627.55,482.68l-1.77-.48c-.34-.09-.55-.36-.48-.57l2.92-7.34c.1-.23.46-.32.81-.23l1.76.5a.47.47,0,0,1,.48.58l-2.91,7.33A.68.68,0,0,1,627.55,482.68Z"/><path class="cls-10" d="M680.17,497.25l-1.77-.48c-.35-.09-.58-.36-.48-.57l2.92-7.35a.69.69,0,0,1,.8-.22l1.77.5c.35.1.56.35.48.56L681,497C680.88,497.25,680.61,497.35,680.17,497.25Z"/><path class="cls-10" d="M653.87,490l-1.77-.5a.49.49,0,0,1-.5-.56l2.94-7.35c0-.21.44-.31.79-.21l1.76.48a.49.49,0,0,1,.5.57l-2.94,7.36C654.58,490,654.21,490.07,653.87,490Z"/><path class="cls-7" d="M678.51,339.56c0,1.34-.57,2.48-1.44,2.51s-1.65-1-1.74-2.32.57-2.48,1.46-2.53S678.44,338.2,678.51,339.56Z"/><path class="cls-7" d="M663.33,340.42c0,1.35-.58,2.48-1.46,2.54s-1.63-1-1.73-2.34.58-2.48,1.46-2.52S663.33,339.1,663.33,340.42Z"/><path class="cls-7" d="M662,338.14l-3.27-.73S660.55,339.83,662,338.14Z"/><path class="cls-13" d="M667.5,342.5a36.37,36.37,0,0,1-4.27,8.83,5.77,5.77,0,0,0,4.82.61Z"/><path class="cls-7" d="M675.52,356.51a11.15,11.15,0,0,1-2.44.36.29.29,0,0,1-.34-.26v0a.33.33,0,0,1,.3-.35h0a10.8,10.8,0,0,0,8.47-4.68.33.33,0,0,1,.56.32A10.93,10.93,0,0,1,675.52,356.51Z"/><path class="cls-7" d="M683.52,329.75a.63.63,0,0,1-.61-.17,6.35,6.35,0,0,0-5.51-1.92.71.71,0,0,1-.79-.5.68.68,0,0,1,.5-.79,7.7,7.7,0,0,1,6.72,2.23.68.68,0,0,1,0,.94A.85.85,0,0,1,683.52,329.75Z"/><path class="cls-7" d="M656.77,331.69a.69.69,0,0,1-.68,0,.65.65,0,0,1-.13-.9,7.7,7.7,0,0,1,6.28-3.27.65.65,0,0,1,.61.69h0a.66.66,0,0,1-.69.62h0a6.38,6.38,0,0,0-5.14,2.72A.69.69,0,0,1,656.77,331.69Z"/><path class="cls-8" d="M637.55,401.24c-1.67,2.53-3.19,4.56-4.89,6.71s-3.38,4.17-5.15,6.17a139.59,139.59,0,0,1-11.29,11.4,119.78,119.78,0,0,1-12.55,10.13c-2.17,1.62-4.49,3-6.76,4.48l-3.55,2-1.76,1c-.66.34-1.5.81-2.31,1.13a19.8,19.8,0,0,1-11.36,1.5,21.57,21.57,0,0,1-9.87-4.68,34.4,34.4,0,0,1-6.26-6.88,56.14,56.14,0,0,1-4.32-7.33,111.64,111.64,0,0,1-9.32-30.5l7.67-1.77c1.6,4.57,3.38,9.31,5.4,13.75a93.62,93.62,0,0,0,6.66,12.8,33.33,33.33,0,0,0,8.29,9.6,7.82,7.82,0,0,0,3.84,1.55,6.54,6.54,0,0,0,3.49-.84,9,9,0,0,0,1.08-.64l1.5-1,3-1.91c1.92-1.43,3.84-2.75,5.76-4.27a141.33,141.33,0,0,0,10.87-9.44c3.51-3.32,6.79-6.87,10-10.52,1.59-1.82,3.15-3.67,4.64-5.55s3-3.84,4.21-5.56Z"/><path class="cls-8" d="M557.31,401.72,559,383.81l-16.1,6.58s1.92,9,8.06,12.23Z"/><polygon class="cls-8" points="553.86 374.13 541.4 371.42 542.9 390.39 559 383.81 553.86 374.13"/><path class="cls-7" d="M636,376.49c-8.38,0-28.58,32-28.58,32l14.26,14.78s26.88-18.12,27.93-28.79C650.57,385.32,646.71,376.59,636,376.49Z"/><path class="cls-9" d="M636,376.49c-8.38,0-28.58,32-28.58,32l14.26,14.78s26.88-18.12,27.93-28.79C650.57,385.32,646.71,376.59,636,376.49Z"/><path class="cls-10" d="M623,424h0a1.53,1.53,0,0,1-2.17,0l-14.42-14.13a1.55,1.55,0,0,1,0-2.17h0a1.56,1.56,0,0,1,2.19,0L623,421.83A1.56,1.56,0,0,1,623,424Z"/><path class="cls-10" d="M532.8,784.48a2.31,2.31,0,0,0,1.44-.54,1.23,1.23,0,0,0,.56-1.17c-.18-2.07-5.44-4.89-6-5.22a.32.32,0,0,0-.35,0,.31.31,0,0,0-.11.35c.59,2.11,1.92,5.76,3.84,6.43A1.92,1.92,0,0,0,532.8,784.48Zm-3.84-6c1.92,1,4.91,3,5,4.32a.58.58,0,0,1-.31.58,1.51,1.51,0,0,1-1.48.34C531.15,783.37,530,781.43,529,778.51Z"/><path class="cls-10" d="M533.51,779.34a3.85,3.85,0,0,0,2.36-.6,1.28,1.28,0,0,0,.31-1.61A1.93,1.93,0,0,0,535,776c-2.25-.79-6.43,1.49-6.6,1.59a.35.35,0,0,0-.18.29.36.36,0,0,0,.16.29A12,12,0,0,0,533.51,779.34Zm.33-2.9a2.79,2.79,0,0,1,.9.15,1.24,1.24,0,0,1,.82.79.71.71,0,0,1-.11.86c-1,.83-4.44.37-6.22-.4A12.41,12.41,0,0,1,533.84,776.44Z"/><path class="cls-10" d="M642.39,826.15a6.55,6.55,0,0,0,3.84-.9,2.4,2.4,0,0,0,1-1.92,1,1,0,0,0-.46-1c-1.79-1.22-9,2.08-9.77,2.46a.33.33,0,0,0,0,.62A26.4,26.4,0,0,0,642.39,826.15Zm3.15-3.39a1.49,1.49,0,0,1,.8.17c.1,0,.19.17.18.44a1.69,1.69,0,0,1-.72,1.35c-1.61,1.22-5.54.71-7.67.32A24.34,24.34,0,0,1,645.54,822.76Z"/><path class="cls-10" d="M637.07,825.48h.12c2.17-.88,6.68-4.51,6.43-6.31,0-.39-.31-.87-1.29-1-3.84-.44-5.51,6.6-5.59,6.91a.38.38,0,0,0,.12.33A.5.5,0,0,0,637.07,825.48ZM642,818.8h.24c.67,0,.71.33.72.42.16,1.16-3.07,4.09-5.41,5.32C638.05,822.91,639.51,818.8,642,818.8Z"/><path class="cls-7" d="M677.17,337.26l-3.26-.73S675.69,339,677.17,337.26Z"/></g><g id="freepik--Smartphone--inject-2"><rect class="cls-10" x="285.84" y="252.37" width="271.53" height="573.46" rx="26.8" transform="translate(-45.29 38.71) rotate(-4.99)"/><path class="cls-10" d="M280,444.93h0a7.69,7.69,0,0,0,6.93-8.28l-6-68.3a7.69,7.69,0,0,0-8.25-7h0a7.68,7.68,0,0,0-6.95,8.28l6,68.3A7.68,7.68,0,0,0,280,444.93Z"/><rect class="cls-7" x="537.17" y="337.68" width="13.99" height="53.21" rx="5.66" transform="translate(-29.62 48.71) rotate(-4.99)"/><rect class="cls-7" x="540.18" y="407.71" width="14.05" height="53.43" rx="5.69" transform="translate(-36.74 50.8) rotate(-5.14)"/><rect class="cls-7" x="290.4" y="251.96" width="271.53" height="573.46" rx="26.8" transform="translate(-45.24 39.11) rotate(-4.99)"/><path class="cls-14" d="M321.16,801.56,575,779.39a5,5,0,0,0,4.57-5.45l-43-492.56a5.05,5.05,0,0,0-5.43-4.57L277.24,299a5,5,0,0,0-4.54,5.43h0l43,492.59a5,5,0,0,0,5.4,4.55Z"/><polygon class="cls-15" points="497.65 279.75 465.75 788.93 412.69 793.58 444.59 284.37 497.65 279.75"/><rect class="cls-16" x="373.07" y="265.76" width="58.99" height="6.78" rx="2.28" transform="translate(-21.89 36.04) rotate(-4.99)"/><path class="cls-10" d="M378.85,460.72H643a26,26,0,0,1,25.9,25.9V616.19A26,26,0,0,1,643,642.1H551.59l-40.67,40.68L470.24,642.1H378.85a26,26,0,0,1-25.92-25.91V486.62A26,26,0,0,1,378.85,460.72Z"/><path class="cls-17" d="M378.85,460.72H643a26,26,0,0,1,25.9,25.9V616.19A26,26,0,0,1,643,642.1H551.59l-40.67,40.68L470.24,642.1H378.85a26,26,0,0,1-25.92-25.91V486.62A26,26,0,0,1,378.85,460.72Z"/><path class="cls-5" d="M395.78,505.62v91.57A13.43,13.43,0,0,0,409,610.74H612.81a13.43,13.43,0,0,0,13.24-13.55V505.62a13.79,13.79,0,0,0-1-5.07,13.31,13.31,0,0,0-12.28-8.48H409a13.54,13.54,0,0,0-13.24,13.55Z"/><path class="cls-18" d="M396.76,500.55l98.51,42.91a39.11,39.11,0,0,0,31.31,0l98.51-42.91a13.31,13.31,0,0,0-12.28-8.48H409A13.27,13.27,0,0,0,396.76,500.55Z"/><circle class="cls-19" cx="373.32" cy="472.23" r="39.39"/><path class="cls-5" d="M380.92,496.24h-9.17V461.68a31.65,31.65,0,0,1-11.85,6.95v-8.31a26.81,26.81,0,0,0,7.8-4.47,16.86,16.86,0,0,0,5.75-7.68h7.45Z"/><path class="cls-10" d="M594.94,228.07a5.76,5.76,0,0,1-5.65-4.88,66.12,66.12,0,0,0-75.13-55.45,5.76,5.76,0,0,1-1.69-11.31,77.55,77.55,0,0,1,88.11,65.07,5.76,5.76,0,0,1-4.8,6.49A4,4,0,0,1,594.94,228.07Z"/><path class="cls-10" d="M566.55,232.33a5.75,5.75,0,0,1-5.65-4.86,37.37,37.37,0,0,0-42.46-31.36,5.76,5.76,0,0,1-1.71-11.31,48.82,48.82,0,0,1,55.48,41,5.75,5.75,0,0,1-4.8,6.5A6.33,6.33,0,0,1,566.55,232.33Z"/><path class="cls-10" d="M538.17,236.61a5.75,5.75,0,0,1-5.64-4.87,8.63,8.63,0,0,0-9.79-7.27h0A5.76,5.76,0,0,1,521,213.19,20,20,0,0,1,543.82,230l0,.12a5.77,5.77,0,0,1-4.8,6.49A4.22,4.22,0,0,1,538.17,236.61Z"/></g></svg>